# xmcd
#
# Track frame offsets:
#	150
#	16200
#	36450
#	61125
#	76725
#	93300
#	110400
#	124650
#	139875
#	157050
#	179025
#	199575
#	218400
#
# Disc length: 3231 seconds
#
# Revision: 1
# Processed by: cddbd v1.5.1PL0 Copyright (c) Steve Scherf et al.
# Submitted via: dBpowerAMP V4.0
#
DISCID=ad0c9d0d
DTITLE=Katie Webster and Black Cat Bone - Men Smart, Women Smarter
DYEAR=1991
DGENRE=Blues
TTITLE0=Men Smart, Women Smarter
TTITLE1=Clean-Up Man
TTITLE2=Misty Blue
TTITLE3=I'm Your Power-Machine
TTITLE4=Slip Away
TTITLE5=Problems
TTITLE6=I'll Be Faithful To You
TTITLE7=Willie, Willie
TTITLE8=I Ain't Looking For Trouble
TTITLE9=Bullie's Soulfood Place
TTITLE10=I Need The Rest Of My Whole Life
TTITLE11=I'll Always Stay Around
TTITLE12=Trouble Of The World
EXTD=4010470007986
EXTT0=
EXTT1=
EXTT2=
EXTT3=
EXTT4=
EXTT5=
EXTT6=
EXTT7=
EXTT8=
EXTT9=
EXTT10=
EXTT11=
EXTT12=
PLAYORDER=
